<?xml version="1.0" standalone="no"?>
<!DOCTYPE svg PUBLIC "-//W3C//DTD SVG 20010904//EN"
 "http://www.w3.org/TR/2001/REC-SVG-20010904/DTD/svg10.dtd">
<svg version="1.0" xmlns="http://www.w3.org/2000/svg"
 width="716.000000pt" height="734.000000pt" viewBox="0 0 716.000000 734.000000"
 preserveAspectRatio="xMidYMid meet">

<g transform="translate(0.000000,734.000000) scale(0.100000,-0.100000)"
fill="#000000" stroke="none">
<path d="M3760 6900 c8 -5 38 -9 65 -9 l50 1 -40 9 c-22 4 -51 8 -65 8 -20 1
-22 -1 -10 -9z"/>
<path d="M3605 6894 c-108 -24 -326 -41 -290 -24 21 11 -42 8 -137 -6 -33 -4
-48 -3 -48 5 0 40 -115 -16 -236 -114 -48 -38 -103 -81 -123 -95 -20 -14 -89
-67 -153 -118 -94 -75 -126 -107 -167 -170 -159 -244 -165 -249 -236 -230 -68
18 -162 9 -274 -27 -125 -40 -135 -41 -193 -16 -66 28 -232 62 -333 68 -149 8
-398 -43 -527 -108 -55 -28 -46 -32 15 -7 142 57 340 98 483 98 86 0 257 -34
343 -68 l74 -29 -81 -37 c-72 -35 -122 -77 -122 -105 0 -5 -41 -42 -90 -81
-50 -40 -89 -75 -86 -77 8 -8 116 56 161 94 32 27 47 34 73 31 l32 -4 -30 31
c-27 28 -31 45 -10 45 4 0 26 -22 48 -49 l42 -49 -53 -18 c-65 -21 -131 -54
-123 -61 3 -3 55 11 115 31 107 35 177 48 120 23 -14 -7 -24 -17 -22 -23 5
-16 -40 -33 -115 -44 -37 -5 -103 -14 -147 -21 -314 -45 -611 -305 -655 -575
-14 -86 -49 -196 -60 -189 -4 3 1 -25 12 -62 12 -38 23 -74 25 -82 6 -22 12
-8 24 52 10 56 37 133 44 126 1 -2 -3 -33 -9 -69 -15 -78 -13 -327 5 -560 15
-206 13 -275 -11 -368 -19 -73 -19 -74 0 -110 11 -20 20 -46 21 -57 0 -11 6
-2 13 20 17 55 24 27 24 -95 1 -52 5 -106 11 -120 8 -20 9 -13 4 29 -9 80 10
57 37 -45 15 -54 34 -100 50 -118 97 -116 141 -199 185 -351 18 -64 103 -261
143 -332 13 -23 45 -59 73 -78 65 -48 89 -81 89 -121 0 -32 0 -33 -26 -19 -19
10 -34 11 -52 4 -22 -8 -29 -6 -48 18 l-23 28 1 -80 c1 -66 2 -72 7 -35 l7 45
8 -45 c11 -58 15 -64 32 -49 11 9 21 9 38 1 18 -8 29 -7 45 4 19 14 22 14 27
0 7 -19 -13 -81 -31 -96 -8 -6 -19 -9 -25 -5 -7 4 -33 -15 -61 -44 -27 -28
-54 -51 -59 -51 -6 0 -10 -11 -10 -25 0 -14 -3 -25 -8 -25 -4 0 -6 -21 -4 -46
2 -25 7 -43 10 -39 3 3 14 -29 24 -72 21 -89 37 -116 81 -143 44 -27 95 -25
139 5 l36 24 6 -53 c4 -29 4 -65 0 -80 -3 -15 -1 -53 6 -85 12 -56 11 -60 -16
-117 -35 -70 -75 -104 -99 -84 -21 18 -31 5 -17 -24 23 -52 122 -50 209 4 38
23 39 29 16 73 -15 30 -15 31 1 17 24 -19 36 -53 41 -116 3 -41 23 -93 81
-216 106 -225 108 -235 94 -648 -11 -350 -36 -592 -64 -635 l-16 -25 977 0
c538 0 972 4 965 9 -8 4 -14 12 -15 17 -1 5 -5 8 -9 7 -8 -3 -3 32 7 47 3 6 1
10 -4 10 -23 0 -9 20 22 34 19 7 49 27 68 44 22 19 54 34 94 42 64 14 135 45
135 59 0 5 38 39 85 76 47 37 85 71 85 77 0 5 -4 6 -10 3 -5 -3 -7 0 -4 7 8
19 103 92 151 117 23 11 77 45 120 74 43 30 107 69 143 88 35 18 84 54 109 79
25 26 63 59 84 74 38 29 47 46 25 46 -7 0 -48 -20 -91 -45 -44 -25 -97 -50
-118 -57 -26 -7 -38 -16 -35 -24 5 -13 -76 -44 -115 -44 -10 0 -44 -7 -76 -15
-31 -8 -75 -15 -98 -15 -22 0 -61 -7 -87 -14 -55 -17 -197 -32 -185 -20 4 4
-32 20 -79 34 -84 26 -86 27 -53 34 l34 8 -28 8 c-31 9 -75 0 -109 -24 -32
-23 -60 -20 -136 13 -69 29 -200 52 -187 32 9 -15 -28 -14 -94 3 -105 27 -206
37 -302 30 -86 -6 -100 -4 -164 20 -38 15 -76 33 -85 40 -8 8 -41 26 -73 41
-37 17 -55 31 -50 38 4 7 -2 5 -12 -3 -17 -14 -18 -13 -11 5 4 11 4 16 0 12
-4 -3 -19 2 -34 13 -15 11 -30 17 -34 13 -3 -3 -6 1 -6 10 0 10 -7 17 -16 17
-8 0 -12 5 -9 10 3 6 0 10 -8 10 -17 0 -42 80 -34 110 3 11 2 22 -3 25 -8 5
-6 98 4 189 4 38 1 54 -14 73 -10 13 -16 32 -13 41 4 13 3 14 -5 3 -7 -9 -12
-10 -16 -2 -4 6 -18 11 -31 11 -13 0 -31 7 -39 16 -9 8 -16 12 -16 8 0 -3 -6
-2 -12 4 -24 19 -155 -10 -152 -35 2 -16 -41 -65 -66 -75 -45 -19 -90 -20 -96
-3 -4 8 -11 15 -18 15 -6 0 -34 21 -62 48 -27 26 -70 65 -95 87 -53 48 -53 49
-125 195 -31 63 -59 117 -64 120 -4 3 -11 28 -15 55 -3 28 -13 64 -20 80 l-13
30 -2 -40 -2 -40 -20 60 c-10 33 -18 75 -16 93 5 37 -18 46 -25 10 -5 -29 -8
-19 -36 98 -26 112 -51 281 -51 350 0 28 -7 73 -15 100 -11 38 -15 107 -15
306 0 141 3 264 6 272 5 13 9 14 20 5 11 -9 14 -6 15 17 0 16 4 38 9 49 8 18
9 18 10 -5 0 -22 2 -23 11 -7 5 9 17 78 25 152 16 149 32 213 33 135 1 -62 12
-121 21 -115 4 2 11 37 14 77 11 116 46 319 61 352 7 17 20 40 29 51 15 19 15
17 2 -20 -7 -22 -16 -53 -20 -70 l-7 -30 21 30 c11 17 20 39 20 50 1 11 16 47
34 80 30 56 38 63 117 103 123 64 244 134 247 143 2 5 10 9 18 9 8 0 14 7 14
15 0 16 -10 13 -77 -23 -61 -32 -53 -20 19 28 l62 41 86 -7 c48 -3 98 -3 111
2 l24 8 -25 7 c-33 9 213 10 265 1 l40 -7 -32 -14 c-18 -7 -33 -20 -33 -27 0
-8 -4 -14 -10 -14 -5 0 -10 -7 -10 -15 0 -8 -12 -27 -27 -42 -33 -33 -53 -67
-53 -88 0 -8 -9 -15 -21 -15 -33 0 -12 -20 50 -47 55 -25 73 -31 98 -32 18 -1
91 -69 125 -115 15 -21 28 -51 27 -65 0 -25 -1 -25 -32 14 -56 68 -119 135
-130 135 -5 0 10 -21 34 -48 66 -70 100 -118 114 -159 11 -31 21 -40 63 -56
47 -18 52 -18 67 -3 29 29 52 37 64 22 6 -7 7 -16 3 -20 -4 -4 -1 -6 7 -4 15
3 36 -65 27 -89 -3 -7 1 -13 9 -13 8 0 14 -5 12 -11 -3 -16 51 -20 60 -5 5 7
17 18 29 24 14 7 25 29 33 66 7 31 17 56 22 56 27 0 45 107 25 151 -10 23 13
107 24 88 7 -10 11 -8 18 11 5 13 7 32 4 43 -7 29 -86 100 -114 103 -46 5
-128 46 -157 79 -15 18 -31 50 -35 70 -8 41 8 95 29 95 7 0 15 19 19 43 3 23
8 51 11 62 5 16 1 21 -16 22 -12 1 -26 8 -31 15 -6 10 -12 9 -23 -6 -8 -11
-15 -27 -15 -35 -1 -18 -29 -72 -30 -56 0 6 -10 -3 -23 -18 l-22 -28 -1 89
c-2 160 -24 211 -39 90 -6 -51 -9 -58 -15 -38 -5 14 -8 51 -9 83 -1 71 -21 76
-22 5 -1 -29 -5 -64 -9 -78 -7 -21 -8 -19 -9 17 -1 23 -4 49 -7 57 -5 14 -9
13 -26 -6 -20 -23 -20 -23 -35 -3 -8 11 -20 33 -25 48 -15 41 -22 25 -29 -61
-5 -73 -6 -75 -17 -47 -9 22 -19 31 -35 30 -28 0 -49 -14 -42 -26 8 -12 8 -12
-53 11 -54 21 -156 27 -180 11 -9 -5 15 -10 63 -13 42 -3 81 -10 88 -17 9 -9
3 -11 -28 -6 -22 4 -75 2 -119 -4 -58 -8 -82 -8 -92 0 -17 14 -103 -5 -136
-30 -37 -28 -116 -71 -130 -71 -17 0 21 26 99 66 63 33 103 63 86 65 -4 1 -17
2 -28 3 -11 0 -20 7 -21 14 -1 6 -3 15 -4 20 -1 4 -2 11 -1 15 3 20 -48 -9
-91 -51 -58 -56 -63 -42 -9 20 59 67 137 103 269 127 62 11 122 26 135 32 44
23 89 62 79 68 -7 4 -1 22 16 49 20 31 44 50 90 73 34 17 62 38 62 46 0 8 4
12 8 9 5 -3 8 12 8 32 -1 27 -9 45 -31 67 -16 17 -31 39 -33 50 -3 19 -29 46
-60 64 -16 9 -8 51 10 51 6 0 38 25 71 56 33 31 71 61 84 67 14 6 27 22 29 37
6 30 59 69 95 71 17 1 19 3 7 6 -25 6 -22 22 5 27 12 3 67 7 122 10 55 4 125
13 155 21 30 8 71 14 90 14 l35 -1 -30 -8 c-49 -12 -80 -27 -94 -44 -12 -14
-10 -16 20 -15 19 0 52 3 74 7 22 4 76 2 120 -4 44 -6 82 -10 84 -8 2 2 -1 4
-7 4 -7 0 -12 4 -12 8 0 5 46 14 103 20 88 10 111 10 167 -4 36 -9 82 -25 102
-35 21 -11 50 -19 66 -19 16 0 51 -6 78 -14 27 -8 74 -19 105 -25 77 -14 179
-63 234 -114 33 -31 56 -66 85 -132 22 -49 40 -83 40 -74 0 9 -20 59 -45 111
-25 53 -45 98 -45 101 0 3 10 7 21 9 20 3 18 8 -25 61 -26 31 -42 57 -36 57 7
0 39 -26 73 -59 34 -32 71 -62 82 -65 26 -9 121 -122 157 -187 15 -28 47 -73
70 -98 24 -26 53 -60 66 -76 l22 -30 -15 40 c-9 21 -23 47 -32 57 -9 10 -14
21 -11 24 7 6 72 -100 83 -134 6 -21 8 -22 19 -7 10 14 14 8 29 -39 18 -54 80
-158 160 -263 35 -47 37 -54 24 -68 -10 -9 -18 -11 -22 -5 -3 5 -17 10 -31 10
-24 0 -24 -1 10 -31 20 -17 40 -28 46 -24 5 3 10 2 10 -3 0 -5 21 -36 48 -69
26 -33 60 -82 76 -109 16 -27 31 -44 33 -37 3 7 21 -1 50 -23 25 -19 48 -32
52 -28 7 7 -79 84 -94 84 -11 0 -125 160 -137 191 -19 50 50 -15 129 -121 22
-30 67 -80 100 -111 104 -98 139 -214 153 -504 6 -109 19 -233 34 -315 13 -74
36 -207 51 -295 37 -221 38 -223 45 -122 6 71 13 98 39 148 19 35 38 95 47
142 8 45 19 107 25 137 5 30 13 71 17 90 l6 35 7 -45 c4 -26 5 -7 3 45 -3 50
0 106 6 125 8 32 9 30 4 -15 -3 -27 -3 -47 2 -43 4 4 26 65 50 134 85 251 85
489 0 683 -38 86 -43 107 -25 95 36 -22 -48 147 -120 243 -56 73 -65 92 -86
176 -13 52 -31 109 -40 127 -9 17 -14 34 -11 37 9 9 76 -164 76 -198 0 -11 5
-16 13 -13 8 3 20 -10 30 -32 10 -20 20 -34 23 -32 10 11 -41 142 -84 216 -25
42 -58 102 -75 132 -42 76 -155 185 -330 319 -81 63 -153 123 -158 134 -13 23
-7 20 66 -34 41 -30 137 -69 171 -69 5 0 -18 27 -51 60 -49 49 -65 60 -92 60
-18 0 -33 4 -33 9 0 13 42 22 55 11 36 -30 48 84 16 150 -14 29 -15 38 -5 29
8 -6 28 -39 44 -73 25 -52 70 -113 70 -93 0 3 -15 42 -34 87 -41 97 -88 157
-170 217 -41 30 -79 71 -116 125 -52 76 -132 149 -147 135 -3 -4 19 -31 49
-59 31 -29 68 -71 84 -93 15 -22 64 -75 108 -117 44 -43 77 -81 73 -84 -8 -9
-122 84 -222 181 -44 43 -104 93 -133 112 -28 18 -67 47 -85 63 -57 50 -132
80 -263 107 -86 17 -151 37 -207 64 -45 21 -77 39 -72 40 45 6 175 -6 245 -22
47 -11 94 -22 105 -24 11 -1 55 -14 97 -29 155 -53 111 -21 -90 65 -92 40
-127 61 -180 109 -41 38 -68 56 -72 49 -5 -7 -25 8 -53 38 -25 26 -42 49 -38
51 13 4 108 -52 172 -103 90 -73 99 -78 99 -67 0 10 -191 195 -226 219 -34 22
-224 73 -274 73 -61 0 -181 18 -194 29 -14 12 -75 21 -101 15z m259 -94 c43 0
76 -14 63 -26 -4 -4 -35 -10 -69 -14 -62 -7 -62 -7 30 -9 98 -1 138 -14 210
-68 37 -28 43 -47 10 -33 -13 5 -50 15 -83 22 -58 12 -59 12 -25 18 l35 6 -40
12 c-22 7 -82 12 -134 12 -84 0 -205 19 -256 40 -17 7 -16 9 10 9 34 1 72 20
45 22 -8 1 -1 5 15 10 17 4 57 6 89 3 32 -2 77 -4 100 -4z m100 -167 c33 -14
66 -31 71 -36 18 -17 -56 4 -119 34 -80 38 -38 40 48 2z m251 -73 c22 -6 51
-17 65 -26 14 -8 18 -13 10 -11 -93 27 -127 38 -140 48 -16 11 -16 11 65 -11z
m-522 3 c-7 -2 -19 -2 -25 0 -7 3 -2 5 12 5 14 0 19 -2 13 -5z m-28 -63 c16
-7 14 -9 -15 -9 -19 -1 -73 -4 -120 -7 -58 -5 -82 -3 -75 4 6 5 19 12 30 15
34 8 159 6 180 -3z m270 -30 c18 -8 18 -9 -5 -8 -14 0 -36 4 -50 8 -24 8 -24
8 5 8 17 0 39 -3 50 -8z m28 -54 c32 -13 67 -53 67 -78 1 -7 21 -28 45 -46 55
-40 60 -63 8 -31 -21 12 -56 33 -78 45 -43 25 -102 80 -94 89 3 3 21 -7 40
-21 64 -48 74 -45 19 5 -58 54 -59 59 -7 37z m152 -76 c9 -15 238 -127 275
-135 59 -13 162 -46 157 -51 -2 -2 -30 2 -61 10 -31 8 -63 13 -72 9 -8 -3 -63
12 -122 33 -87 31 -102 39 -82 44 22 6 18 10 -44 41 -48 23 -81 48 -105 79
l-36 45 42 -33 c24 -19 45 -37 48 -42z m-260 -13 c43 -22 237 -171 227 -175
-19 -6 -107 47 -172 103 -35 30 -78 60 -97 67 -18 7 -33 16 -33 20 0 9 45 0
75 -15z m698 -24 c31 -14 55 -28 53 -31 -6 -6 -157 48 -171 61 -17 16 55 -3
118 -30z m223 -144 c8 -13 -21 1 -51 26 -19 15 -18 15 12 1 17 -9 35 -21 39
-27z m-2562 -43 c22 -11 24 -15 11 -20 -9 -3 -26 -1 -38 5 -13 8 -53 10 -114
6 -51 -3 -93 -4 -93 -1 0 2 15 8 33 13 50 14 171 13 201 -3z m2599 -6 c36 -17
133 -90 102 -77 -21 9 -155 89 -155 93 0 7 10 4 53 -16z m-858 0 c-29 -12
-184 -12 -165 0 8 5 53 9 100 9 57 0 78 -3 65 -9z m828 -36 c128 -65 282 -182
264 -200 -3 -4 -27 12 -53 34 -25 23 -67 53 -92 68 -59 34 -182 115 -182 120
0 8 12 3 63 -22z m-2604 2 c40 -11 42 -13 20 -19 -13 -4 -45 -7 -72 -7 -113 0
-407 -66 -407 -91 0 -11 39 -3 100 21 50 20 183 41 245 38 22 -1 67 2 100 6
80 10 55 -6 -54 -34 -46 -11 -95 -19 -110 -15 -19 4 -34 -2 -56 -20 -19 -16
-25 -25 -15 -25 21 -1 -104 -58 -146 -66 -27 -5 -34 -3 -34 10 0 9 -4 16 -10
16 -5 0 -16 13 -25 29 -8 16 -22 31 -31 33 -9 2 6 14 38 30 121 62 172 80 266
92 128 18 139 18 191 2z m2271 -45 c58 -11 134 -25 169 -31 52 -9 74 -20 119
-56 31 -25 74 -55 96 -66 46 -23 141 -92 152 -109 4 -8 -1 -9 -17 -4 -22 7
-21 4 10 -29 19 -20 30 -36 24 -36 -7 0 -14 4 -17 9 -3 5 -57 48 -118 95 -62
48 -134 104 -159 125 -36 29 -62 41 -110 50 -94 18 -261 61 -279 72 -12 8 -11
9 5 5 11 -3 67 -14 125 -25z m-696 -130 c54 -39 92 -71 85 -71 -7 0 8 -22 34
-48 46 -47 56 -62 38 -62 -18 0 -281 246 -281 263 0 6 5 5 13 -1 6 -5 56 -42
111 -81z m-1557 43 c-56 -30 -163 -56 -141 -34 14 14 115 48 144 49 l25 0 -28
-15z m1376 -19 c20 -8 53 -35 74 -60 36 -44 119 -95 154 -95 14 0 73 -39 59
-40 -22 -1 -142 45 -197 75 -42 23 -85 38 -117 41 -38 4 -47 3 -36 -5 19 -13
9 -14 -25 -1 -14 5 -23 14 -20 20 9 15 101 12 142 -5 l36 -15 -19 21 c-10 12
-44 34 -74 50 -59 30 -42 41 23 14z m1372 -42 c67 -46 95 -81 110 -133 6 -22
4 -21 -23 10 -18 21 -26 38 -20 41 6 4 -24 30 -65 58 -73 49 -98 71 -79 71 4
0 39 -21 77 -47z m-202 -66 c16 -15 27 -30 25 -32 -2 -3 -26 19 -54 47 -48 51
-29 41 29 -15z m-2698 25 c-23 -21 -185 -102 -185 -93 0 21 138 101 173 101
13 0 17 -4 12 -8z m1664 -83 c131 -59 181 -92 203 -133 7 -13 -2 -9 -28 12
-21 18 -44 32 -50 32 -7 0 -52 21 -100 46 -49 26 -114 60 -144 75 -101 52 -19
30 119 -32z m-69 -44 c13 -14 19 -25 13 -25 -5 0 -20 11 -33 25 -13 14 -19 25
-13 25 5 0 20 -11 33 -25z m1192 -67 c28 -23 48 -34 50 -27 6 17 86 -69 175
-186 42 -55 80 -102 85 -104 12 -4 1 36 -18 67 -22 34 -8 27 56 -29 59 -52 88
-95 69 -101 -22 -7 69 -154 138 -223 38 -38 90 -101 116 -140 26 -38 76 -104
112 -145 36 -41 65 -79 65 -83 0 -4 -10 3 -22 17 -13 13 -50 48 -84 78 -62 55
-212 211 -252 262 -12 16 -25 26 -28 23 -16 -16 111 -181 231 -302 77 -77 168
-191 163 -206 -4 -13 -104 89 -138 143 -33 50 -132 140 -110 99 6 -13 9 -25 7
-28 -5 -4 -29 31 -132 192 -18 28 -43 68 -56 90 -12 22 -40 63 -61 91 -20 27
-56 90 -79 140 -67 143 -156 252 -277 338 -22 16 -58 47 -79 69 -36 38 -36 40
-8 22 17 -10 51 -35 77 -57z m98 -3 c24 -25 40 -45 34 -45 -5 0 -30 20 -54 45
-24 25 -40 45 -34 45 5 0 30 -20 54 -45z m-3550 24 c-8 -5 -52 -31 -98 -57
-120 -68 -194 -132 -264 -230 -65 -90 -87 -99 -41 -16 34 63 162 189 235 232
71 42 221 105 168 71z m308 5 c-4 -3 -40 -14 -82 -24 -72 -18 -135 -44 -146
-60 -12 -17 -190 -99 -190 -88 0 13 98 83 157 112 73 36 286 85 261 60z m492
2 c0 -3 -24 -21 -52 -40 -29 -19 -89 -71 -133 -116 -84 -84 -105 -98 -81 -52
27 50 131 152 186 182 51 27 80 37 80 26z m1630 -41 c23 -19 38 -35 33 -35
-11 0 -91 69 -81 70 3 0 25 -16 48 -35z m-1490 16 c0 -5 -13 -14 -29 -21 -16
-6 -45 -23 -63 -36 -39 -29 -169 -182 -235 -277 -26 -38 -49 -63 -53 -57 -10
16 -74 -94 -110 -186 -48 -124 -49 -124 -49 -88 -1 44 87 272 143 370 25 45
46 87 46 92 0 17 49 71 112 123 78 65 95 63 23 -2 -31 -29 -54 -58 -51 -65 2
-6 -13 -36 -35 -66 -49 -64 -82 -125 -76 -141 2 -7 13 6 25 29 29 56 158 210
222 263 29 24 69 50 89 57 44 16 41 16 41 5z m-760 -41 c-8 -5 -22 -9 -30 -9
-10 0 -8 3 5 9 27 12 43 12 25 0z m41 -37 c-74 -102 -240 -241 -348 -294 -90
-43 -148 -87 -156 -119 -3 -11 -4 -20 -2 -20 2 0 23 18 47 41 42 39 179 114
198 107 5 -2 -22 -25 -61 -53 -39 -27 -94 -70 -122 -95 -64 -56 -133 -108
-123 -92 4 8 2 10 -7 6 -17 -6 -29 -50 -33 -110 -3 -56 -41 -144 -54 -124 -8
12 -10 11 -10 -5 0 -11 -5 -27 -11 -35 -8 -11 -9 6 -6 63 6 92 47 186 112 257
23 25 55 63 72 85 18 22 59 63 92 90 33 28 62 56 65 63 8 19 -10 7 -80 -55
-66 -57 -81 -65 -63 -32 24 46 -12 6 -54 -59 -56 -86 -94 -119 -52 -45 29 49
144 192 194 240 65 63 217 148 333 188 92 31 94 31 69 -2z m3485 -54 c25 -17
100 -83 167 -148 67 -64 134 -125 149 -134 15 -10 41 -41 58 -70 29 -50 90
-221 90 -252 0 -36 -22 -7 -80 108 -96 188 -132 232 -395 479 -58 55 -53 62
11 17z m-3918 -32 c-25 -23 -65 -62 -88 -87 -44 -47 -44 -38 -1 19 25 34 116
111 129 111 4 -1 -14 -20 -40 -43z m1062 -8 c-64 -51 -84 -61 -43 -20 23 23
48 41 55 41 7 0 2 -9 -12 -21z m-36 -100 c-43 -46 -124 -112 -130 -107 -4 5
145 138 155 138 2 0 -8 -14 -25 -31z m2881 -89 c49 -115 105 -293 117 -367 11
-78 -2 -238 -22 -271 -8 -13 -10 7 -5 78 4 81 1 116 -25 238 -16 79 -46 183
-65 230 -36 87 -58 187 -37 167 5 -5 22 -39 37 -75z m-4029 -31 c-48 -61 -70
-99 -125 -219 -10 -22 -11 -19 -6 20 9 65 60 163 117 220 71 72 78 61 14 -21z
m3723 -120 c49 -131 61 -174 42 -153 -24 26 -120 317 -97 293 2 -2 27 -65 55
-140z m-2743 80 c-32 -37 -34 -27 -4 21 12 20 23 30 25 22 3 -6 -7 -26 -21
-43z m-1156 -211 c-12 -45 -23 -85 -26 -87 -17 -17 13 139 33 172 15 25 12
-11 -7 -85z m4114 -128 c43 -58 87 -122 97 -142 27 -54 44 -137 30 -151 -8 -8
-11 -7 -11 5 0 9 -4 19 -9 22 -5 4 -7 -12 -4 -36 l6 -43 -32 60 c-18 33 -56
92 -85 130 -29 39 -58 81 -65 93 -22 41 -6 33 26 -12 19 -27 41 -45 57 -48
l27 -5 -18 26 c-41 62 -127 209 -144 246 -32 69 -21 84 14 20 18 -33 67 -107
111 -165z m266 13 c0 -57 -4 -94 -11 -99 -8 -5 -9 15 -4 72 6 66 3 90 -13 139
-34 98 -34 103 -2 40 27 -54 30 -70 30 -152z m-4188 104 c-23 -23 -42 -36 -42
-28 0 17 69 86 77 77 4 -4 -12 -26 -35 -49z m4027 -182 c0 -5 -4 -3 -9 5 -5 8
-9 22 -9 30 0 16 17 -16 18 -35z m-3420 -106 c-11 -62 -24 -186 -28 -274 -6
-153 -7 -157 -15 -90 -17 136 5 354 46 458 19 48 18 24 -3 -94z m3725 66 c3
-13 19 -33 35 -44 67 -48 161 -177 216 -295 29 -64 50 -116 47 -115 -4 0 -24
23 -45 50 -21 27 -42 47 -47 44 -18 -11 -69 26 -101 73 -18 26 -54 71 -81 101
-27 29 -56 67 -64 83 -20 39 -7 57 16 21 28 -42 87 -109 93 -103 3 3 -9 25
-26 50 -48 71 -77 129 -77 157 0 21 3 23 14 14 8 -7 17 -23 20 -36z m-34 -215
c0 -4 30 -41 68 -81 37 -41 58 -67 47 -59 -52 38 -82 65 -102 93 -25 34 -28
32 -13 -7 15 -42 -6 -31 -34 17 -13 23 -28 55 -32 71 l-7 29 37 -28 c20 -15
36 -31 36 -35z m93 -45 l32 -40 -32 23 c-18 13 -47 44 -65 70 l-31 47 32 -30
c18 -16 47 -48 64 -70z m-133 -76 c0 -5 -20 13 -45 41 -25 28 -45 54 -45 58 1
10 90 -88 90 -99z m-2683 69 c45 -31 42 -45 -4 -17 -50 29 -60 39 -43 39 8 0
29 -10 47 -22z m2581 -83 c-3 -3 -18 11 -33 32 l-28 38 34 -32 c18 -18 30 -35
27 -38z m42 13 c0 -6 -7 -5 -15 2 -8 7 -15 17 -15 22 0 6 7 5 15 -2 8 -7 15
-17 15 -22z m281 -95 l24 -27 -32 23 c-33 23 -40 31 -25 31 5 0 19 -12 33 -27z
m-8 -353 c7 -43 6 -44 -8 -20 -8 14 -14 43 -14 65 0 49 13 24 22 -45z m56
-116 c6 -21 10 -61 9 -89 -1 -39 -2 -42 -5 -15 -2 19 -10 67 -18 107 -8 40
-14 94 -14 120 2 45 2 44 9 -18 5 -36 13 -83 19 -105z m181 93 c9 -39 9 -63 1
-94 -19 -71 -28 -56 -27 47 1 55 4 100 8 100 4 0 12 -24 18 -53z m-276 -37 c5
-24 4 -30 -3 -20 -5 8 -12 33 -15 55 -8 48 8 19 18 -35z m194 -95 c1 -25 -1
-27 -8 -10 -5 11 -8 36 -8 55 0 32 1 33 8 10 4 -14 8 -38 8 -55z m-4068 -1757
c0 -19 -2 -20 -10 -8 -13 19 -13 30 0 30 6 0 10 -10 10 -22z m-30 -20 c0 -5
-7 -8 -15 -8 -15 0 -20 21 -8 33 7 7 23 -11 23 -25z m2050 -1323 c17 -9 30
-17 30 -20 0 -7 -63 14 -74 25 -15 15 10 12 44 -5z m583 -360 c-21 -19 -65
-47 -98 -63 -105 -51 -113 -45 -15 11 68 38 102 65 120 92 22 34 25 35 28 16
2 -15 -8 -32 -35 -56z m-373 -135 c-34 -11 -60 -11 -35 0 11 5 29 8 40 8 16 0
15 -2 -5 -8z"/>
<path d="M945 4890 c-4 -17 -5 -34 -2 -36 3 -3 8 9 12 26 4 17 5 34 2 36 -3 3
-8 -9 -12 -26z"/>
<path d="M5390 5215 c0 -12 40 -84 50 -90 12 -8 3 19 -23 63 -18 30 -27 39
-27 27z"/>
<path d="M5547 4469 c7 -7 15 -10 18 -7 3 3 -2 9 -12 12 -14 6 -15 5 -6 -5z"/>
<path d="M2415 6491 c-88 -56 -128 -108 -165 -217 -22 -63 -25 -84 -11 -84 5
0 18 28 30 61 35 103 95 182 196 256 50 37 14 26 -50 -16z"/>
<path d="M4256 6450 c9 -9 242 -61 263 -60 3 1 -11 10 -31 21 -64 33 -259 66
-232 39z"/>
<path d="M1098 6363 c7 -3 16 -2 19 1 4 3 -2 6 -13 5 -11 0 -14 -3 -6 -6z"/>
<path d="M1610 6291 c24 -20 40 -26 40 -16 0 2 -15 12 -32 20 l-33 16 25 -20z"/>
<path d="M1961 6249 c-30 -5 -74 -20 -96 -34 -45 -26 -106 -105 -81 -105 7 0
21 11 30 25 48 73 119 105 233 105 47 0 72 4 68 10 -7 12 -78 11 -154 -1z"/>
<path d="M4780 6229 c55 -48 80 -55 33 -10 -23 23 -48 41 -55 41 -7 -1 3 -14
22 -31z"/>
<path d="M1563 6042 c9 -110 2 -121 -175 -254 -53 -40 -43 -54 10 -15 17 12
68 49 112 82 l82 60 -5 83 c-3 47 -10 89 -17 95 -10 10 -11 -1 -7 -51z"/>
<path d="M5615 5151 c19 -22 55 -46 55 -38 0 3 -17 17 -37 33 -31 23 -34 24
-18 5z"/>
<path d="M4576 5050 c16 -35 100 -140 112 -140 9 0 10 5 3 18 -12 22 -125 142
-115 122z"/>
<path d="M4510 5041 c0 -7 16 -37 35 -67 19 -30 35 -63 35 -73 0 -10 9 -26 20
-36 11 -10 18 -20 16 -22 -2 -2 18 -25 45 -50 27 -25 52 -43 55 -40 4 3 -9 28
-28 54 -32 44 -41 82 -16 67 6 -4 8 2 6 12 -2 11 -10 19 -18 19 -17 0 -77 54
-120 109 -16 21 -30 33 -30 27z"/>
<path d="M4535 4900 c16 -16 31 -28 33 -25 7 7 -39 55 -52 55 -5 0 3 -13 19
-30z"/>
<path d="M4791 4865 c-1 -11 10 -38 24 -60 31 -51 31 -35 0 30 -15 31 -24 42
-24 30z"/>
<path d="M4148 4774 c-5 -4 -8 -19 -8 -33 0 -13 -9 -58 -21 -98 -11 -40 -19
-90 -17 -111 l4 -37 8 30 c4 17 16 52 27 78 15 35 19 66 17 113 -2 36 -6 62
-10 58z"/>
<path d="M4222 4688 c-92 -136 -110 -199 -32 -116 27 29 50 60 50 68 1 8 7 32
14 53 18 49 4 47 -32 -5z"/>
<path d="M4390 4713 c-75 -27 -93 -45 -110 -104 -11 -37 -5 -37 15 1 20 39 49
65 99 90 37 18 34 27 -4 13z"/>
<path d="M4445 4686 c-59 -19 -83 -36 -121 -89 -19 -27 -51 -57 -70 -69 -19
-11 -32 -23 -30 -26 8 -8 76 42 126 93 53 54 137 85 234 85 43 0 57 3 46 10
-21 14 -137 11 -185 -4z"/>
<path d="M4065 4618 c-23 -39 -36 -212 -15 -191 7 6 16 50 20 97 5 46 11 94
15 105 9 30 2 26 -20 -11z"/>
<path d="M4475 4635 c-21 -8 -56 -31 -78 -52 -22 -21 -48 -46 -59 -55 -10 -10
-18 -19 -18 -20 0 -2 41 -1 92 1 65 2 109 10 155 27 35 13 76 24 92 24 16 0
34 7 41 15 7 8 29 15 49 16 29 0 32 2 16 9 -11 5 -33 12 -50 16 -30 8 -30 8
-4 11 23 4 63 -7 123 -32 30 -13 10 12 -24 30 -39 20 -282 27 -335 10z m15
-35 c-61 -21 -66 -23 -57 -14 9 9 80 33 97 33 8 0 -10 -9 -40 -19z m95 -29
c-12 -11 -96 -31 -127 -31 -53 1 33 27 127 39 6 1 6 -2 0 -8z"/>
<path d="M4007 4580 c-9 -20 -36 -184 -31 -189 9 -10 33 37 39 74 8 51 2 136
-8 115z"/>
<path d="M4835 4572 c-5 -5 -36 -18 -68 -30 -48 -18 -127 -72 -105 -72 22 0
127 47 153 68 25 21 36 24 80 19 30 -4 44 -3 35 2 -25 15 -84 23 -95 13z"/>
<path d="M4960 4441 c0 -6 4 -13 10 -16 6 -3 7 1 4 9 -7 18 -14 21 -14 7z"/>
<path d="M5012 4428 c-20 -20 -14 -28 13 -16 13 6 22 15 19 19 -7 12 -18 11
-32 -3z"/>
<path d="M4220 4053 c-51 -20 -98 -65 -119 -115 -12 -29 -27 -62 -32 -74 -8
-15 -7 -40 2 -85 10 -51 19 -71 46 -96 19 -18 41 -33 49 -33 8 0 13 -5 12 -11
-4 -14 117 -83 207 -119 121 -49 186 -56 327 -35 194 28 196 34 8 28 -144 -5
-187 -3 -240 11 -60 15 -244 95 -237 103 2 2 30 -6 63 -18 104 -37 295 -22
355 28 26 22 30 31 27 67 -3 38 -7 43 -53 69 l-50 28 60 -5 c54 -5 256 -64
271 -79 4 -3 -7 -9 -22 -12 -64 -15 -96 -28 -143 -60 -73 -51 -152 -75 -246
-76 -111 -1 -58 -17 63 -18 65 -1 91 2 90 11 -2 6 33 26 77 44 128 52 172 73
185 89 8 10 31 15 68 15 l56 0 -50 31 c-62 40 -151 71 -283 99 -88 19 -125 22
-230 17 -69 -3 -135 -8 -146 -12 -16 -6 -17 -5 -5 4 8 6 39 15 68 21 57 13 61
30 6 30 -29 0 -33 2 -22 14 7 8 18 13 23 13 6 -1 9 3 8 9 -1 7 9 9 25 7 27 -4
27 -4 -8 26 -19 17 -42 31 -50 31 -8 0 -33 14 -54 30 -37 28 -72 36 -106 23z
m207 -305 c10 -11 2 -12 -42 -10 -35 3 -55 0 -55 -7 0 -6 3 -11 8 -11 4 0 12
-20 18 -45 6 -25 8 -45 4 -45 -12 0 -30 25 -30 42 0 10 -11 24 -25 30 -29 13
-34 52 -9 66 20 11 113 -3 131 -20z"/>
<path d="M862 3865 c0 -16 2 -22 5 -12 2 9 2 23 0 30 -3 6 -5 -1 -5 -18z"/>
<path d="M3910 3860 c0 -8 5 -22 10 -30 9 -13 10 -13 10 0 0 8 -5 22 -10 30
-9 13 -10 13 -10 0z"/>
<path d="M4050 3666 c0 -18 65 -77 124 -111 59 -34 161 -73 131 -49 -36 28
-245 174 -250 174 -3 0 -5 -6 -5 -14z"/>
<path d="M2640 3660 c-162 -6 -196 -11 -270 -34 -47 -15 -93 -27 -103 -27 -10
0 -36 -7 -58 -14 -36 -13 -43 -13 -56 0 -18 19 -15 19 -68 -6 -56 -26 -115
-84 -116 -112 -2 -51 3 -152 7 -157 3 -2 8 0 12 5 9 13 35 18 27 6 -8 -13 16
-58 50 -93 22 -24 34 -28 82 -28 80 0 251 27 349 56 46 13 129 47 184 74 55
28 103 50 107 50 5 -1 -9 -16 -31 -34 -31 -26 -35 -34 -22 -39 9 -4 16 -2 16
3 0 5 6 7 14 4 23 -9 139 44 198 91 78 61 124 160 93 200 -14 19 -15 19 -26 1
-22 -37 -65 -76 -116 -105 -72 -41 -67 -21 7 29 59 40 80 65 80 93 0 20 -82
47 -134 45 -23 -1 -124 -5 -226 -8z m127 -50 c66 -25 62 -70 -12 -138 -90 -82
-245 -129 -342 -103 -50 14 -93 60 -93 102 0 34 -3 35 -38 10 -15 -10 -37 -24
-50 -30 -48 -25 -4 27 59 70 50 34 60 37 54 21 -9 -29 11 -97 39 -128 18 -22
34 -28 78 -32 64 -5 170 25 206 59 45 41 14 130 -51 148 l-32 8 25 11 c33 14
121 15 157 2z m-517 -30 c-31 -21 -121 -62 -126 -57 -3 3 23 19 58 36 61 30
98 41 68 21z m-166 -123 c-3 -9 -22 -28 -42 -43 l-37 -28 40 45 c42 47 50 52
39 26z m226 -18 c0 -11 -3 -18 -7 -16 -5 2 -17 7 -28 11 -16 6 -17 9 -5 16 24
16 40 11 40 -11z m-223 -56 c-4 -3 -24 -14 -46 -24 -38 -17 -39 -17 -45 3 -3
14 -2 18 5 11 7 -7 22 -6 47 3 43 15 48 16 39 7z m156 -20 c-7 -2 -21 -2 -30
0 -10 3 -4 5 12 5 17 0 24 -2 18 -5z m111 -39 c31 -12 4 -24 -54 -24 -55 0
-78 9 -63 24 8 8 96 8 117 0z m130 -34 c-12 -12 -162 -26 -151 -14 5 5 34 12
65 15 92 10 97 10 86 -1z"/>
<path d="M1111 3354 c0 -11 3 -14 6 -6 3 7 2 16 -1 19 -3 4 -6 -2 -5 -13z"/>
<path d="M5750 3200 c-8 -5 -10 -10 -5 -10 6 0 17 5 25 10 8 5 11 10 5 10 -5
0 -17 -5 -25 -10z"/>
<path d="M5843 3084 c-27 -14 -31 -20 -27 -47 2 -18 15 -106 29 -197 13 -91
28 -205 31 -253 9 -113 24 -94 24 31 0 90 19 250 41 344 12 52 5 100 -18 123
-18 19 -40 19 -80 -1z"/>
<path d="M6003 2995 c0 -27 2 -38 4 -22 2 15 2 37 0 50 -2 12 -4 0 -4 -28z"/>
<path d="M1600 2889 c0 -99 3 -139 10 -129 9 14 4 259 -6 269 -2 2 -4 -61 -4
-140z"/>
<path d="M3085 2994 c-16 -8 -45 -29 -62 -47 -34 -32 -101 -137 -107 -166 -1
-9 -8 -29 -14 -44 -14 -32 -32 -28 -25 6 4 19 3 20 -7 5 -7 -12 -8 -48 -4
-109 8 -103 22 -126 74 -121 17 2 65 -8 108 -22 67 -23 99 -27 213 -29 l135
-2 38 30 c61 48 88 59 145 60 50 0 55 -2 62 -25 5 -22 7 -23 14 -7 4 10 5 31
1 47 -8 42 12 38 30 -5 11 -26 12 -41 4 -55 -6 -11 -10 -28 -8 -37 2 -14 -8
-19 -52 -27 l-55 -9 39 -10 c27 -7 68 -5 145 7 58 9 131 16 161 16 39 0 51 3
40 10 -8 5 -51 10 -95 11 -72 1 -77 2 -52 13 30 13 26 26 -7 27 -19 0 -20 1
-2 8 17 7 17 8 -6 23 -14 9 -40 24 -59 33 -75 36 -77 38 -84 84 -9 60 -42 129
-71 148 -15 10 -33 13 -54 8 -18 -4 -30 -3 -30 4 0 6 -12 8 -31 4 -21 -4 -34
-1 -40 8 -13 21 -12 23 24 39 l32 15 -34 3 c-52 5 -93 -5 -126 -33 l-30 -24
25 -1 c14 0 32 -4 40 -10 11 -7 9 -11 -13 -19 -16 -6 -45 -11 -65 -12 -28 0
-16 -6 55 -24 94 -24 144 -44 111 -45 -9 0 -45 7 -79 16 -73 19 -141 14 -169
-11 -11 -10 -24 -33 -31 -52 -7 -21 -20 -38 -36 -44 -32 -12 -46 -12 -38 1 4
6 -15 10 -50 10 -54 0 -56 1 -71 35 -31 75 -8 175 58 250 45 51 68 66 118 76
l35 7 -35 1 c-19 0 -48 -6 -65 -15z"/>
<path d="M4270 3002 c0 -7 7 -27 16 -45 9 -17 20 -54 25 -82 l8 -50 -3 60 c-2
41 -10 71 -24 95 -12 19 -22 29 -22 22z"/>
<path d="M5583 2685 c2 -121 5 -161 13 -151 8 12 16 -3 34 -67 13 -45 28 -88
34 -96 9 -12 4 -13 -31 -9 -50 7 -56 -5 -13 -27 38 -20 58 -19 97 5 48 29 83
105 83 180 0 62 -8 88 -38 119 -9 10 -38 41 -65 69 -26 28 -56 54 -67 57 -12
4 -24 21 -30 46 -6 21 -12 39 -14 39 -2 0 -3 -74 -3 -165z"/>
<path d="M3924 2795 c-80 -42 -96 -55 -137 -115 -34 -49 -37 -49 39 5 27 20
179 31 214 17 24 -10 23 -11 -13 -11 -21 -1 -45 -7 -52 -15 -12 -11 -3 -15 55
-25 80 -13 95 -9 115 30 21 39 19 57 -11 93 -57 68 -110 73 -210 21z"/>
<path d="M1300 2816 c0 -2 15 -13 34 -24 22 -13 33 -16 30 -8 -6 16 -64 45
-64 32z"/>
<path d="M1200 2710 c-11 -11 -20 -29 -20 -41 0 -44 52 -340 81 -458 26 -108
63 -201 75 -188 2 2 -4 44 -12 93 -13 70 -15 119 -9 229 5 77 8 184 9 239 1
95 0 100 -24 116 -41 30 -77 33 -100 10z"/>
<path d="M4230 2691 c-19 -16 -32 -32 -29 -35 3 -3 23 10 45 29 47 41 33 46
-16 6z"/>
<path d="M5957 2650 c-4 -30 -6 -82 -6 -115 2 -55 2 -53 11 30 10 102 6 168
-5 85z"/>
<path d="M5942 2425 c0 -16 2 -22 5 -12 2 9 2 23 0 30 -3 6 -5 -1 -5 -18z"/>
<path d="M3306 2365 c-11 -8 -17 -17 -14 -20 3 -3 16 3 29 14 27 23 14 28 -15
6z"/>
<path d="M3054 2316 c-51 -47 -57 -55 -45 -70 7 -8 18 -13 25 -9 6 4 -4 -12
-22 -35 -19 -23 -29 -42 -23 -42 5 0 13 5 16 11 4 6 35 24 69 40 34 16 75 41
90 56 28 26 29 27 7 34 -19 8 -26 20 -22 43 1 5 -5 3 -14 -4 -20 -17 -32 -5
-15 15 29 34 -11 11 -66 -39z"/>
<path d="M4541 2330 c14 -19 31 -36 38 -38 22 -7 -5 33 -36 53 l-28 19 26 -34z"/>
<path d="M5920 2303 c-6 -32 -14 -67 -16 -78 -4 -16 -3 -17 5 -5 10 17 33 131
27 137 -2 3 -9 -22 -16 -54z"/>
<path d="M2914 2265 c-51 -16 -87 -35 -81 -42 8 -7 -35 -53 -65 -69 -35 -18
-158 -140 -158 -156 0 -7 -6 -24 -13 -39 -26 -49 -47 -123 -47 -165 0 -36 6
-48 40 -83 43 -44 71 -55 116 -48 l29 4 -32 7 c-18 5 -33 16 -36 27 -5 17 -3
17 23 4 16 -8 59 -19 97 -25 54 -7 74 -6 97 5 16 8 36 15 45 15 9 0 23 5 31
10 11 7 5 13 -28 28 -55 24 -39 32 68 32 63 0 82 4 101 20 13 10 18 19 12 20
-62 1 95 81 205 105 38 8 89 21 113 30 123 44 176 57 308 75 221 31 459 25
656 -15 39 -8 93 -16 120 -18 41 -3 64 -13 127 -57 69 -48 79 -52 113 -46 50
10 70 54 55 123 -21 94 -86 171 -187 222 -24 12 -43 26 -43 31 0 6 -3 10 -7
10 -5 0 -7 -21 -5 -47 4 -62 -20 -101 -81 -131 -74 -37 -155 -48 -251 -34 -45
7 -114 12 -154 12 -41 0 -72 4 -72 10 0 6 15 10 33 11 65 1 -13 21 -93 23
-142 5 -271 45 -337 107 -39 36 -86 51 -95 31 -3 -8 -216 -67 -303 -84 -74
-14 -122 -41 -203 -113 -78 -69 -106 -79 -135 -45 -21 25 -21 32 0 28 12 -2
23 9 35 34 22 46 32 98 18 98 -5 0 -10 7 -10 15 0 8 -12 21 -27 29 l-28 14 40
11 c22 6 51 18 65 26 22 12 22 14 5 14 -11 -1 -39 -7 -61 -14z m-74 -129 c0
-3 -4 -8 -10 -11 -5 -3 -10 -1 -10 4 0 6 5 11 10 11 6 0 10 -2 10 -4z m1909
-36 c29 -40 22 -38 -20 6 -18 19 -27 32 -18 29 9 -3 26 -19 38 -35z m-884 -9
c21 -5 -1 -9 -75 -15 -120 -8 -246 -36 -480 -103 -13 -4 -13 -3 0 5 21 14 172
56 310 86 171 37 190 39 245 27z m-578 -127 c-3 -3 -12 -4 -19 -1 -8 3 -5 6 6
6 11 1 17 -2 13 -5z"/>
<path d="M3718 2238 c13 -12 92 -21 92 -10 0 5 -22 12 -50 14 -27 1 -46 0 -42
-4z"/>
<path d="M4310 2236 c0 -1 27 -24 60 -50 64 -50 71 -62 43 -69 -10 -3 -4 -5
14 -6 45 -1 47 11 10 46 -50 47 -127 95 -127 79z"/>
<path d="M732 2210 c-7 -11 -19 -20 -27 -20 -10 0 -15 -10 -15 -30 0 -16 -5
-30 -11 -30 -5 0 -7 5 -3 12 4 7 3 8 -4 4 -15 -9 -16 -47 -1 -43 6 1 18 -9 27
-23 16 -23 16 -24 0 -12 -14 11 -17 10 -23 -7 -3 -12 -13 -21 -21 -21 -9 0
-12 -5 -8 -12 5 -8 13 -5 24 10 10 12 20 18 24 15 3 -3 1 -12 -4 -18 -8 -9 -3
-12 17 -12 14 0 32 -8 38 -17 11 -15 13 -15 18 4 3 11 0 23 -5 27 -7 3 -8 1
-4 -5 4 -7 2 -12 -3 -12 -6 0 -11 4 -11 10 0 5 -7 7 -15 4 -8 -4 -15 -1 -15 5
0 6 3 10 8 10 32 -5 82 3 76 12 -4 7 2 6 17 -2 23 -12 23 -11 9 7 -13 17 -13
18 0 8 9 -8 23 -9 38 -3 22 8 31 29 11 29 -5 0 -7 -4 -4 -10 3 -5 -1 -10 -9
-10 -10 0 -16 9 -16 25 0 14 -4 25 -10 25 -5 0 -10 8 -10 18 0 14 2 15 10 2 7
-11 10 -12 10 -2 0 16 -24 42 -39 42 -6 0 -11 7 -11 15 0 9 -6 12 -16 8 -9 -3
-19 -1 -23 5 -4 7 -11 4 -19 -8z"/>
<path d="M5862 2137 c-18 -34 -25 -53 -16 -42 19 24 57 96 52 100 -2 2 -18
-24 -36 -58z"/>
<path d="M847 2184 c6 -3 9 -17 7 -33 -4 -20 0 -30 12 -35 14 -5 15 -4 5 8
-16 19 -3 50 14 36 10 -9 12 -7 9 7 -3 12 -15 19 -32 20 -15 1 -22 -1 -15 -3z"/>
<path d="M4025 2172 c6 -5 24 -13 40 -16 19 -5 26 -4 20 2 -5 5 -23 13 -40 16
-19 5 -26 4 -20 -2z"/>
<path d="M4194 2131 c25 -25 37 -31 73 -31 24 0 43 3 43 8 0 4 -24 15 -53 25
-97 33 -95 33 -63 -2z"/>
<path d="M900 2130 c8 -5 10 -10 4 -10 -15 0 -23 -56 -11 -72 6 -9 7 -8 3 5
-4 11 0 17 11 17 12 0 13 3 3 15 -15 18 -4 36 18 28 13 -4 13 -2 -3 10 -11 9
-24 16 -30 17 -5 0 -3 -5 5 -10z"/>
<path d="M1731 2114 c0 -11 3 -14 6 -6 3 7 2 16 -1 19 -3 4 -6 -2 -5 -13z"/>
<path d="M426 2084 c-19 -19 -12 -36 11 -27 11 5 13 8 5 11 -10 3 -10 7 -1 18
16 19 4 18 -15 -2z"/>
<path d="M645 2060 c-3 -5 -1 -10 4 -10 6 0 11 5 11 10 0 6 -2 10 -4 10 -3 0
-8 -4 -11 -10z"/>
<path d="M610 2050 c0 -5 5 -10 11 -10 5 0 7 5 4 10 -3 6 -8 10 -11 10 -2 0
-4 -4 -4 -10z"/>
<path d="M840 2046 c0 -8 6 -16 14 -19 10 -4 12 0 9 14 -6 22 -23 26 -23 5z"/>
<path d="M470 2015 c0 -8 -3 -14 -7 -14 -34 5 -54 -3 -51 -20 2 -10 -8 -28
-22 -41 -14 -12 -20 -19 -14 -16 7 3 9 -3 7 -19 -4 -16 -10 -22 -20 -18 -8 3
-11 9 -6 12 11 8 15 51 4 51 -13 0 -23 -64 -11 -68 5 -2 8 -8 5 -12 -3 -5 -7
-27 -10 -49 -3 -38 -3 -39 25 -35 21 4 30 0 33 -13 4 -17 5 -17 6 0 1 18 16
23 26 7 4 -6 13 -5 24 2 20 12 17 43 -6 66 -7 8 -10 19 -6 25 5 8 9 7 11 -4 4
-20 48 -14 56 8 4 9 2 11 -7 6 -19 -12 -37 -12 -37 -1 0 6 7 8 15 4 8 -3 15
-1 15 4 0 15 -28 12 -56 -6 -19 -13 -22 -20 -13 -30 9 -11 8 -14 -5 -14 -18 0
-22 35 -5 45 6 4 8 14 4 22 -4 12 -2 13 8 5 8 -7 18 -7 27 -2 8 5 18 6 23 3 6
-4 7 5 3 21 -5 22 -3 26 15 26 18 0 19 2 9 15 -8 9 -22 13 -34 10 -20 -5 -20
-5 1 6 18 9 25 8 38 -5 21 -21 36 -21 28 1 -4 10 -2 14 5 9 6 -3 14 -1 18 5 4
8 3 9 -4 5 -7 -4 -12 -1 -12 8 0 19 -11 21 -28 4 -9 -9 -12 -9 -12 0 0 7 -9
12 -20 12 -11 0 -20 -7 -20 -15z m-27 -81 c-3 -7 -10 -12 -16 -11 -7 1 -11 -4
-9 -10 1 -7 -3 -13 -9 -13 -5 0 -8 -4 -4 -9 3 -5 0 -13 -6 -16 -5 -4 -8 -13
-5 -20 3 -8 -2 -11 -15 -8 -22 6 -26 23 -4 23 9 0 15 9 15 25 0 14 5 25 10 25
6 0 10 6 10 13 0 21 22 39 31 25 4 -6 5 -17 2 -24z"/>
<path d="M608 2023 c7 -3 16 -2 19 1 4 3 -2 6 -13 5 -11 0 -14 -3 -6 -6z"/>
<path d="M621 1993 c-1 -16 4 -21 19 -20 11 1 20 8 20 15 0 11 -3 12 -14 3
-11 -10 -15 -8 -19 6 -4 15 -5 14 -6 -4z"/>
<path d="M837 1999 c7 -7 15 -10 18 -7 3 3 -2 9 -12 12 -14 6 -15 5 -6 -5z"/>
<path d="M2565 1993 c-16 -15 -45 -73 -45 -88 0 -15 28 -2 37 18 37 79 39 102
8 70z"/>
<path d="M5546 1980 c-15 -75 33 -120 128 -120 59 0 68 16 13 22 -72 8 -98 27
-117 83 l-17 50 -7 -35z"/>
<path d="M5796 1995 c-3 -9 -6 -24 -5 -33 0 -9 5 -4 10 12 9 32 6 48 -5 21z"/>
<path d="M559 1958 c-7 -13 -14 -28 -15 -35 -3 -18 24 -24 30 -7 3 9 10 12 16
9 16 -10 12 6 -7 29 -17 20 -17 20 1 6 16 -13 19 -13 15 -1 -8 24 -27 24 -40
-1z m11 -24 c0 -8 -5 -12 -10 -9 -6 4 -8 11 -5 16 9 14 15 11 15 -7z"/>
<path d="M498 1943 c7 -3 16 -2 19 1 4 3 -2 6 -13 5 -11 0 -14 -3 -6 -6z"/>
<path d="M1394 1889 c5 -59 89 -149 138 -149 14 0 28 -6 31 -12 3 -10 9 -10
28 -1 13 6 33 15 44 19 17 6 18 8 3 11 -9 2 -15 10 -12 16 2 7 -9 33 -25 58
-26 41 -33 47 -76 52 -26 4 -67 16 -91 26 l-43 20 3 -40z"/>
<path d="M4650 1897 c14 -15 41 -29 60 -32 35 -6 34 -6 -9 15 -25 11 -52 26
-60 32 -9 7 -5 0 9 -15z"/>
<path d="M505 1797 c-4 -10 -5 -21 -1 -24 10 -10 18 4 13 24 -4 17 -4 17 -12
0z"/>
<path d="M3372 1783 l27 -19 -55 -48 c-30 -27 -54 -54 -54 -60 0 -6 -6 -23
-14 -38 -12 -23 -12 -26 0 -21 8 3 14 0 14 -5 0 -6 -8 -12 -17 -14 -28 -5 42
-44 110 -62 63 -17 98 -10 167 33 69 42 189 15 230 -51 27 -45 27 -10 -1 44
l-21 41 24 -8 c12 -4 46 -9 73 -10 28 -1 33 0 13 2 -52 6 -47 19 9 28 51 7
143 49 143 65 0 19 -27 22 -181 21 -115 -1 -159 1 -159 10 0 12 -109 8 -160
-6 l-25 -7 23 21 c13 11 25 28 26 38 2 10 14 20 27 24 l24 6 -26 11 c-15 6
-71 14 -125 17 -99 7 -99 7 -72 -12z"/>
<path d="M417 1760 c-3 -11 -2 -22 3 -25 4 -3 10 4 13 15 3 11 2 22 -3 25 -4
3 -10 -4 -13 -15z"/>
<path d="M462 1773 c-6 -2 -10 -9 -7 -13 7 -11 35 -2 35 11 0 10 -8 10 -28 2z"/>
<path d="M1370 1753 c0 -4 18 -26 40 -48 23 -22 52 -56 65 -75 27 -37 34 -26
11 18 -20 38 -116 125 -116 105z"/>
<path d="M374 1734 c-18 -14 -18 -15 4 -4 12 6 22 13 22 15 0 8 -5 6 -26 -11z"/>
<path d="M470 1708 c0 -15 -3 -27 -7 -27 -5 1 -21 1 -37 0 -23 -1 -27 -4 -18
-13 7 -7 12 -16 12 -22 0 -6 -5 -5 -12 2 -16 16 -25 15 -32 -4 -6 -15 -4 -15
11 -3 15 12 16 12 10 -4 -6 -15 -4 -16 14 -6 12 6 18 17 15 25 -3 8 -1 14 4
14 6 0 10 -4 10 -8 0 -5 7 -9 15 -9 8 0 11 5 8 10 -4 6 1 8 11 4 10 -4 15 -3
11 3 -3 6 3 10 14 10 18 0 27 -17 19 -36 -5 -9 31 -26 42 -19 6 3 10 1 10 -4
0 -11 -13 -15 -39 -12 -7 2 -10 -2 -7 -7 8 -14 88 -5 98 10 4 8 2 14 -7 16 -8
2 -15 8 -15 13 0 5 -5 9 -11 9 -5 0 -7 -4 -4 -10 3 -5 2 -10 -4 -10 -5 0 -12
6 -14 13 -4 9 -6 9 -6 -1 -1 -7 -5 -11 -11 -7 -5 3 -7 12 -4 20 4 8 10 12 15
9 5 -3 9 0 9 5 0 6 -10 11 -23 11 -22 0 -52 34 -43 48 2 4 -4 8 -15 8 -14 0
-19 -7 -19 -28z m122 -100 c-7 -7 -12 -8 -12 -2 0 14 12 26 19 19 2 -3 -1 -11
-7 -17z"/>
<path d="M3685 1721 c-14 -7 18 -10 100 -10 66 -1 145 -4 175 -7 47 -4 52 -3
35 7 -24 16 -280 23 -310 10z"/>
<path d="M373 1713 c-7 -2 -13 -9 -13 -14 0 -6 4 -8 9 -4 5 3 12 -3 14 -12 3
-10 4 -6 4 10 -1 15 -2 27 -2 26 0 0 -6 -3 -12 -6z"/>
<path d="M351 1657 c-13 -21 -12 -21 5 -5 10 10 16 20 13 22 -3 3 -11 -5 -18
-17z"/>
<path d="M632 1613 c-6 -10 -8 -31 -5 -46 4 -22 2 -26 -11 -21 -9 3 -16 13
-16 21 0 10 -8 13 -31 9 -22 -3 -36 1 -51 16 -21 21 -21 21 -16 1 4 -16 1 -19
-17 -15 -13 2 -22 11 -21 19 0 9 -5 18 -11 20 -8 3 -13 -4 -13 -15 0 -13 10
-24 30 -31 29 -10 42 -24 18 -18 -7 1 -13 -12 -15 -30 -1 -18 2 -33 7 -33 13
0 13 -36 0 -61 -9 -16 -7 -19 12 -19 13 0 19 -4 13 -8 -5 -4 -10 -14 -10 -22
0 -8 5 -19 10 -23 6 -5 -1 -6 -15 -3 -24 5 -24 4 -6 -9 11 -8 16 -15 10 -15
-13 0 19 -20 33 -20 11 0 29 37 25 53 -1 4 10 12 24 17 17 7 24 15 20 25 -4
11 1 15 17 15 18 0 19 2 7 10 -8 5 -10 10 -4 10 7 0 15 7 18 16 3 8 2 12 -4 9
-6 -3 -10 -1 -10 4 0 6 7 11 15 11 8 0 15 6 15 14 0 8 3 22 7 32 4 12 3 15 -5
10 -7 -4 -12 -2 -12 3 0 6 5 11 10 11 6 0 10 7 10 15 0 8 -6 15 -12 15 -9 0
-9 3 -3 8 12 8 13 27 3 37 -3 4 -11 -2 -16 -12z m8 -99 c0 -8 -5 -12 -10 -9
-6 4 -8 11 -5 16 9 14 15 11 15 -7z"/>
<path d="M2610 1450 c0 -5 5 -10 11 -10 5 0 7 5 4 10 -3 6 -8 10 -11 10 -2 0
-4 -4 -4 -10z"/>
<path d="M1 1308 c-1 -15 4 -30 9 -33 8 -5 7 -11 -1 -21 -19 -23 -4 -26 22 -4
13 11 18 19 10 18 -7 -2 -19 12 -26 32 -13 33 -14 34 -14 8z"/>
<path d="M5048 1009 c-55 -46 -65 -73 -14 -34 28 22 74 75 64 75 -2 0 -24 -18
-50 -41z"/>
<path d="M5075 740 c-4 -28 -5 -53 -2 -56 2 -3 7 19 11 47 4 28 5 53 3 56 -3
2 -8 -19 -12 -47z"/>
<path d="M4030 777 c0 -3 27 -23 60 -45 l60 -40 55 13 c70 16 80 25 29 26 -90
2 -135 10 -169 30 -19 12 -35 19 -35 16z"/>
<path d="M7097 738 c-28 -15 -35 -23 -25 -29 16 -10 -2 -12 -79 -10 -28 1 -54
-3 -57 -8 -3 -5 -16 -7 -29 -4 -16 3 -18 2 -8 -5 10 -7 10 -11 1 -17 -7 -4
-16 -2 -20 5 -5 8 -9 5 -13 -10 -5 -18 -11 -21 -31 -16 -20 5 -26 3 -26 -9 0
-11 -7 -14 -25 -11 -17 3 -30 -2 -41 -17 -12 -16 -15 -17 -11 -4 4 11 1 17 -9
17 -9 0 -12 -5 -8 -12 5 -8 2 -9 -9 -5 -11 4 -17 1 -17 -9 0 -8 5 -12 10 -9 6
3 10 1 10 -5 0 -8 -9 -10 -25 -6 -14 4 -25 2 -25 -4 0 -5 -9 -19 -21 -31 l-21
-21 22 7 c21 7 22 4 18 -24 -3 -19 0 -32 9 -35 7 -3 13 -15 13 -26 0 -13 -4
-18 -11 -14 -8 4 -8 1 -1 -12 5 -11 10 -37 11 -59 0 -22 5 -64 10 -93 5 -31 4
-55 -1 -58 -5 -3 -5 -11 1 -17 5 -7 11 -39 12 -72 2 -33 8 -63 12 -66 5 -4 4
-16 -2 -28 l-12 -21 231 0 230 0 0 380 c0 298 -3 380 -12 379 -7 0 -30 -10
-51 -21z m-417 -188 c0 -5 -4 -10 -10 -10 -5 0 -10 5 -10 10 0 6 5 10 10 10 6
0 10 -4 10 -10z"/>
<path d="M6085 644 c-44 -30 -89 -64 -100 -76 l-20 -22 25 17 c14 9 55 32 91
51 36 19 71 42 79 51 8 10 23 21 35 25 18 8 18 9 -5 9 -14 -1 -61 -25 -105
-55z"/>
<path d="M5062 630 c0 -14 2 -19 5 -12 2 6 2 18 0 25 -3 6 -5 1 -5 -13z"/>
<path d="M6256 598 c5 -8 -35 -13 -65 -8 -9 1 -12 -4 -8 -14 4 -10 1 -16 -9
-16 -15 0 -40 -48 -42 -83 0 -5 -9 -15 -19 -22 -10 -7 -15 -17 -11 -21 4 -4 3
-13 -3 -21 -6 -7 -7 -13 -2 -13 9 0 9 -34 0 -60 -11 -31 -14 -70 -4 -70 6 0 6
-4 0 -12 -6 -7 -16 -30 -23 -51 -6 -20 -15 -35 -19 -32 -16 9 -33 -43 -28 -86
12 -95 -1 -89 174 -89 l154 0 40 42 c33 35 42 40 50 28 9 -13 10 -13 6 0 -2 8
5 26 17 39 11 13 15 21 7 16 -9 -5 -7 2 5 17 13 17 21 22 26 14 5 -7 8 -5 8 7
0 9 -5 17 -11 17 -6 0 -9 8 -7 17 2 10 -7 28 -20 41 -12 12 -20 22 -16 22 4 0
-6 10 -22 22 -19 16 -43 23 -75 24 -38 0 -52 6 -73 29 -14 15 -26 34 -26 41 0
7 -6 15 -12 17 -7 3 -2 6 12 6 14 1 20 5 14 9 -13 9 -14 62 -1 62 5 0 6 -7 3
-16 -4 -9 -1 -14 6 -12 20 7 18 38 -2 38 -13 0 -18 7 -17 20 1 11 6 20 12 20
5 0 4 4 -3 9 -17 10 -12 67 6 64 6 -2 12 1 12 6 0 6 -9 9 -19 8 -11 0 -17 -5
-15 -9z m-24 -36 c-7 -2 -10 -8 -7 -12 3 -5 0 -12 -6 -16 -8 -5 -9 -3 -4 6 6
10 4 12 -8 7 -14 -5 -15 -3 -5 12 7 11 18 17 27 13 10 -4 11 -7 3 -10z"/>
<path d="M5045 545 c-4 -33 -15 -116 -25 -185 -38 -263 -46 -380 -25 -359 2 3
11 77 20 165 8 87 22 216 31 286 9 70 14 133 11 140 -2 7 -8 -14 -12 -47z"/>
<path d="M6394 585 c-4 -8 -14 -15 -23 -16 -12 0 -12 -2 4 -9 17 -7 17 -9 3
-9 -10 -1 -18 -5 -18 -11 0 -15 12 -12 38 9 23 20 31 38 10 25 -8 -5 -9 -2 -5
9 3 10 4 17 1 17 -2 0 -7 -7 -10 -15z"/>
<path d="M6320 580 c0 -6 7 -10 15 -10 8 0 15 2 15 4 0 2 -7 6 -15 10 -8 3
-15 1 -15 -4z"/>
<path d="M6297 573 c-4 -3 -7 -11 -7 -17 0 -6 5 -5 12 2 6 6 9 14 7 17 -3 3
-9 2 -12 -2z"/>
<path d="M6296 531 c-4 -6 -4 -11 0 -11 4 0 -1 -7 -12 -15 -10 -8 -14 -14 -9
-14 6 0 19 6 29 14 14 11 17 18 9 26 -8 8 -13 8 -17 0z"/>
<path d="M6106 512 c-3 -5 1 -9 9 -9 8 0 12 4 9 9 -3 4 -7 8 -9 8 -2 0 -6 -4
-9 -8z"/>
<path d="M6291 414 c0 -11 3 -14 6 -6 3 7 2 16 -1 19 -3 4 -6 -2 -5 -13z"/>
</g>
</svg>
